<svg id="Capa_1" enable-background="new 0 0 512 512" height="512" viewBox="0 0 512 512" width="512" xmlns="http://www.w3.org/2000/svg"><g><path d="m437.403 201.601c0-7.646-6.22-13.866-13.865-13.866h-34.652c-7.646 0-13.866 6.221-13.866 13.866v34.652c0 7.646 6.221 13.865 13.866 13.865h34.652c7.646 0 13.865-6.22 13.865-13.865zm-15 33.517h-32.384v-32.384h32.384z"/><path d="m362.297 201.601c0-7.646-6.22-13.866-13.865-13.866h-34.652c-7.646 0-13.866 6.221-13.866 13.866v34.652c0 7.646 6.221 13.865 13.866 13.865h34.652c7.646 0 13.865-6.22 13.865-13.865zm-15 33.517h-32.384v-32.384h32.384z"/><path d="m287.192 201.601c0-7.646-6.22-13.866-13.865-13.866h-34.652c-7.646 0-13.866 6.221-13.866 13.866v34.652c0 7.646 6.221 13.865 13.866 13.865h34.652c7.646 0 13.865-6.22 13.865-13.865zm-15 33.517h-32.384v-32.384h32.384z"/><path d="m136.981 277.666c0-7.646-6.221-13.865-13.866-13.865h-34.653c-7.646 0-13.865 6.22-13.865 13.865v34.652c0 7.646 6.22 13.866 13.865 13.866h34.652c7.646 0 13.866-6.221 13.866-13.866v-34.652zm-15 33.519h-32.384v-32.384h32.384z"/><path d="m437.403 277.666c0-7.646-6.22-13.865-13.865-13.865h-34.652c-7.646 0-13.866 6.22-13.866 13.865v34.652c0 7.646 6.221 13.866 13.866 13.866h34.652c7.646 0 13.865-6.221 13.865-13.866zm-15 33.519h-32.384v-32.384h32.384z"/><path d="m362.297 277.666c0-7.646-6.22-13.865-13.865-13.865h-34.652c-7.646 0-13.866 6.22-13.866 13.865v34.652c0 7.646 6.221 13.866 13.866 13.866h34.652c7.646 0 13.865-6.221 13.865-13.866zm-15 33.519h-32.384v-32.384h32.384z"/><path d="m287.192 277.666c0-7.646-6.22-13.865-13.865-13.865h-34.652c-7.646 0-13.866 6.22-13.866 13.865v34.652c0 7.646 6.221 13.866 13.866 13.866h34.652c7.646 0 13.865-6.221 13.865-13.866zm-15 33.519h-32.384v-32.384h32.384z"/><path d="m212.086 277.666c0-7.646-6.22-13.865-13.865-13.865h-34.653c-7.646 0-13.865 6.22-13.865 13.865v34.652c0 7.646 6.22 13.866 13.865 13.866h34.653c7.646 0 13.865-6.221 13.865-13.866zm-15 33.519h-32.384v-32.384h32.384z"/><path d="m136.981 353.732c0-7.646-6.221-13.865-13.866-13.865h-34.653c-7.646 0-13.865 6.22-13.865 13.865v34.652c0 7.646 6.22 13.865 13.865 13.865h34.652c7.646 0 13.866-6.22 13.866-13.865v-34.652zm-15 33.518h-32.384v-32.383h32.384z"/><path d="m423.538 339.867h-34.652c-7.646 0-13.866 6.22-13.866 13.865v34.652c0 7.646 6.221 13.865 13.866 13.865h34.652c7.646 0 13.865-6.22 13.865-13.865v-34.652c0-7.645-6.22-13.865-13.865-13.865zm-1.135 47.383h-32.384v-32.383h32.384z"/><path d="m348.432 339.867h-34.652c-7.646 0-13.866 6.22-13.866 13.865v34.652c0 7.646 6.221 13.865 13.866 13.865h34.652c7.646 0 13.865-6.22 13.865-13.865v-34.652c0-7.645-6.219-13.865-13.865-13.865zm-1.135 47.383h-32.384v-32.383h32.384z"/><path d="m287.192 353.732c0-7.646-6.22-13.865-13.865-13.865h-34.652c-7.646 0-13.866 6.22-13.866 13.865v34.652c0 7.646 6.221 13.865 13.866 13.865h34.652c7.646 0 13.865-6.22 13.865-13.865zm-15 33.518h-32.384v-32.383h32.384z"/><path d="m212.086 353.732c0-7.646-6.22-13.865-13.865-13.865h-34.653c-7.646 0-13.865 6.22-13.865 13.865v34.652c0 7.646 6.22 13.865 13.865 13.865h34.653c7.646 0 13.865-6.22 13.865-13.865zm-15 33.518h-32.384v-32.383h32.384z"/><path d="m123.115 415.933h-34.653c-7.646 0-13.865 6.221-13.865 13.866v34.652c0 7.646 6.22 13.865 13.865 13.865h34.652c7.646 0 13.866-6.22 13.866-13.865v-34.652c.001-7.646-6.22-13.866-13.865-13.866zm-1.134 47.383h-32.384v-32.384h32.384z"/><path d="m273.327 415.933h-34.652c-7.646 0-13.866 6.221-13.866 13.866v34.652c0 7.646 6.221 13.865 13.866 13.865h34.652c7.646 0 13.865-6.22 13.865-13.865v-34.652c0-7.646-6.22-13.866-13.865-13.866zm-1.135 47.383h-32.384v-32.384h32.384z"/><path d="m198.221 415.933h-34.653c-7.646 0-13.865 6.221-13.865 13.866v34.652c0 7.646 6.22 13.865 13.865 13.865h34.653c7.646 0 13.865-6.22 13.865-13.865v-34.652c0-7.646-6.219-13.866-13.865-13.866zm-1.135 47.383h-32.384v-32.384h32.384z"/><path d="m472.673 323.367c4.143 0 7.5-3.357 7.5-7.5 0-12.439 0-237.511 0-247.214 0-12.25-9.967-22.217-22.217-22.217h-8.968v-32.391c.001-7.744-6.3-14.045-14.044-14.045h-18.705c-7.745 0-14.046 6.301-14.046 14.045v32.392h-16.795v-32.392c0-7.744-6.301-14.045-14.045-14.045h-18.705c-7.745 0-14.046 6.301-14.046 14.045v32.392h-165.204v-32.392c0-7.744-6.301-14.045-14.045-14.045h-18.705c-7.745 0-14.046 6.301-14.046 14.045v32.392h-16.795v-32.392c0-7.744-6.301-14.045-14.045-14.045h-18.705c-7.745 0-14.046 6.301-14.046 14.045v32.392h-8.968c-12.25 0-22.217 9.967-22.217 22.217v421.129c0 12.251 9.967 22.218 22.217 22.218h403.913c12.25 0 22.217-9.967 22.217-22.218v-138.916c0-4.143-3.357-7.5-7.5-7.5s-7.5 3.357-7.5 7.5v138.915c0 3.979-3.237 7.218-7.217 7.218h-403.913c-3.979 0-7.217-3.238-7.217-7.218v-320.73h418.347v146.815c0 4.143 3.358 7.5 7.5 7.5zm-55.48-308.367h16.796v57.606h-16.796c0-7.064 0-52.067 0-57.606zm-63.591 0h16.796v57.606h-16.796c0-7.064 0-52.067 0-57.606zm-212 0h16.796v57.606h-16.796c0-7.064 0-52.067 0-57.606zm-63.591 0h16.796v57.606h-16.796c0-7.064 0-52.067 0-57.606zm-31.184 139.052v-85.399c0-3.979 3.237-7.217 7.217-7.217h8.968v12.125c0 7.744 6.301 14.045 14.046 14.045h18.705c7.744 0 14.045-6.301 14.045-14.045v-12.124h16.795v12.125c0 7.744 6.301 14.045 14.046 14.045h18.705c7.744 0 14.045-6.301 14.045-14.045v-12.125h165.204v12.125c0 7.744 6.301 14.045 14.046 14.045h18.705c7.744 0 14.045-6.301 14.045-14.045v-12.125h16.795v12.125c0 7.744 6.301 14.045 14.046 14.045h18.705c7.744 0 14.045-6.301 14.045-14.045v-12.125h8.968c3.979 0 7.217 3.237 7.217 7.217v85.398z"/><path d="m318.789 84.347h-45.289c-4.143 0-7.5 3.357-7.5 7.5s3.357 7.5 7.5 7.5h44.333v16.795h-123.666v-16.795h44.333c4.143 0 7.5-3.357 7.5-7.5s-3.357-7.5-7.5-7.5h-45.289c-7.744 0-14.045 6.301-14.045 14.045v18.705c0 7.744 6.301 14.045 14.045 14.045h125.577c7.744 0 14.045-6.301 14.045-14.045v-18.705c0-7.745-6.3-14.045-14.044-14.045z"/></g></svg>