<?xml version="1.0" encoding="iso-8859-1"?>
<!-- Generator: Adobe Illustrator 19.0.0, SVG Export Plug-In . SVG Version: 6.00 Build 0)  -->
<svg version="1.1" id="Layer_1" xmlns="http://www.w3.org/2000/svg" xmlns:xlink="http://www.w3.org/1999/xlink" x="0px" y="0px"
	 viewBox="0 0 512 512" style="enable-background:new 0 0 512 512;" xml:space="preserve">
<g>
	<g>
		<g>
			<path d="M50.358,27.624v67.143H0v318.964h151.071v70.645l70.644-70.645h214.749v-41.964H512V27.624H50.358z M419.642,396.908
				H214.748l-46.854,46.854v-46.854H16.822V111.589h402.82V396.908z M495.178,354.944h-58.713V94.767H67.18v-50.32h427.998V354.944z
				"/>
			<rect x="50.375" y="145.122" width="16.785" height="16.823"/>
			<rect x="50.375" y="195.477" width="335.709" height="16.822"/>
			<rect x="50.375" y="237.444" width="335.709" height="16.823"/>
			<rect x="50.375" y="279.41" width="335.709" height="16.823"/>
			<rect x="50.375" y="321.377" width="335.709" height="16.822"/>
			<rect x="83.948" y="145.122" width="16.786" height="16.823"/>
			<rect x="276.977" y="145.122" width="109.111" height="16.823"/>
		</g>
	</g>
</g>
<g>
</g>
<g>
</g>
<g>
</g>
<g>
</g>
<g>
</g>
<g>
</g>
<g>
</g>
<g>
</g>
<g>
</g>
<g>
</g>
<g>
</g>
<g>
</g>
<g>
</g>
<g>
</g>
<g>
</g>
</svg>
