<?xml version="1.0" encoding="iso-8859-1"?>
<!-- Generator: Adobe Illustrator 19.0.0, SVG Export Plug-In . SVG Version: 6.00 Build 0)  -->
<svg version="1.1" id="Capa_1" xmlns="http://www.w3.org/2000/svg" xmlns:xlink="http://www.w3.org/1999/xlink" x="0px" y="0px"
	 viewBox="0 0 512 512" style="enable-background:new 0 0 512 512;" xml:space="preserve">
<g>
	<g>
		<rect x="344.004" y="312" width="16" height="24"/>
	</g>
</g>
<g>
	<g>
		<rect x="384.004" y="272" width="24" height="16"/>
	</g>
</g>
<g>
	<g>
		<rect x="380.011" y="299.037" transform="matrix(0.7071 -0.7071 0.7071 0.7071 -109.8066 366.9221)" width="16" height="33.944"/>
	</g>
</g>
<g>
	<g>
		<path d="M336.004,0v48h12.688l-35.808,35.808c-41.456-26.72-95.752-25.096-135.696,4.208l1.024-0.848
			C160.484,77.264,140.492,72,120.004,72c-66.168,0-120,53.832-120,120c0,57,40.808,106.368,96,117.608V344h-32v48h32v40h48v-40h32
			v-48h-32v-34.376c16.312-3.304,31.808-10.264,45.6-20.096c18.376,10.312,38.496,15.416,58.504,15.416
			c30.904,0,61.504-12.04,84.752-35.288c40.184-40.192,46.36-103.832,15.536-150.744l35.6-35.6V96h48V0H336.004z M183.964,273.784
			c-14.496,11.352-31.416,18.672-49.224,21.176l-6.736,0.96V360h32v16h-32v40h-16v-40h-32v-16h32v-64.056l-6.864-0.984
			C54.324,287.688,16.004,243.432,16.004,192c0-57.344,46.656-104,104-104c15.656,0,30.992,3.504,44.92,10.208l0.584-0.48
			c-0.784,0.744-1.6,1.464-2.352,2.216c-3.896,3.896-7.392,8.056-10.632,12.32l1.096-1.6C142.956,106.24,131.684,104,120.004,104
			c-48.52,0-88,39.48-88,88s39.48,88,88,88c15.032,0,29.552-3.768,42.352-10.896l5.936-3.608
			c7.488-4.888,14.296-11.056,20.016-18.112c1.912-2.352,3.696-4.808,5.352-7.336l3.128-5.176
			c7.352-13.072,11.216-27.768,11.216-42.872c0-18.528-5.872-36.52-16.84-52.024c1.864-2.424,3.816-4.752,5.944-6.88
			c1.208-1.208,2.472-2.288,3.736-3.384c15.36,17.944,21.944,39.728,21.944,62.288c0,21.192-5.736,41.592-17.736,58.976
			C199.036,259.696,192.14,267.376,183.964,273.784z M144.788,123.592c-24.904,41.736-22.136,94.064,6.992,132.92
			c-9.768,4.856-20.568,7.488-31.776,7.488c-39.696,0-72-32.304-72-72s32.304-72,72-72c8.408,0,16.552,1.44,24.32,4.248l0.024-0.016
			L144.788,123.592z M181.972,155.408c6.504,11,10.032,23.632,10.032,36.592c0,9.904-2.128,19.56-6.032,28.528
			C174.356,200.816,172.852,176.424,181.972,155.408z M215.916,120l-0.168-0.264c27.328-13.808,61.064-8.808,83.168,13.368
			c13.608,13.576,21.112,31.656,21.112,50.896s-7.504,37.32-21.128,50.912c-19.816,19.88-48.928,26.064-74.832,16.816
			c10.44-18.128,15.936-38.576,15.936-59.728C240.004,165.92,231.492,140.72,215.916,120z M416.004,80h-16V44.688l-72.544,72.544
			l4.136,5.544c30.536,41.016,26.224,99.304-10.04,135.568c-31.656,31.664-79,39.328-118.456,20.256
			c0.784-0.752,1.512-1.576,2.272-2.352c0.976-0.992,1.96-1.976,2.896-3c1.064-1.16,2.088-2.368,3.104-3.576
			c0.912-1.072,1.832-2.136,2.704-3.248c0.256-0.32,0.528-0.616,0.784-0.936c32.624,13.36,70.168,6,95.352-19.272
			c16.648-16.6,25.816-38.696,25.816-62.224c0-23.528-9.168-45.624-25.8-62.208C280.62,92.096,233.892,87.496,199.252,110.8
			c-4.704,3.048-9.24,6.744-13.464,10.976c-4.248,4.248-8.104,9.016-11.432,14.144c-20.096,30.56-18.808,70.768,2.576,99.952
			c-0.176,0.224-0.328,0.472-0.504,0.696c-1.12,1.416-2.328,2.76-3.552,4.088c-0.568,0.616-1.096,1.272-1.688,1.872
			c-1.84,1.872-3.776,3.648-5.792,5.296c-0.032,0.024-0.064,0.048-0.096,0.072c-27.488-35.8-28.832-85.24-2.576-122.68
			c3.4-4.872,7.344-9.568,11.736-13.96c2.848-2.848,5.984-5.632,9.296-8.256c36.392-28.688,87.952-29.672,125.368-2.376l5.528,4.04
			L387.316,32h-35.312V16h64V80z"/>
	</g>
</g>
<g>
</g>
<g>
</g>
<g>
</g>
<g>
</g>
<g>
</g>
<g>
</g>
<g>
</g>
<g>
</g>
<g>
</g>
<g>
</g>
<g>
</g>
<g>
</g>
<g>
</g>
<g>
</g>
<g>
</g>
</svg>
