<?xml version="1.0" encoding="utf-8"?>
<!-- Generator: Adobe Illustrator 24.2.0, SVG Export Plug-In . SVG Version: 6.00 Build 0)  -->
<svg version="1.1" xmlns="http://www.w3.org/2000/svg" xmlns:xlink="http://www.w3.org/1999/xlink" x="0px" y="0px"
	 viewBox="0 0 512 512" style="enable-background:new 0 0 512 512;" xml:space="preserve">
<style type="text/css">
	.st0{fill:#CE3232;}
	.st1{fill:#811212;}
</style>
<g id="Camada_2">
	<path class="st0" d="M380.3,29.9L380.3,29.9c-18,0-35.9,2.9-53.1,8.5c-9.1-10.4-22.2-16.6-36-17c-25.7,1.4-51.1,6-75.7,13.7
		c-5.7,1.7-11,4.5-15.6,8.4c-21.2-9-44.1-13.6-67.1-13.6C58.6,29.9,0.5,101.6,0.5,193.1c0,96.1,62.1,227.8,235.4,291
		c0.2,0.1,0.3,0.1,0.5,0.2c5.7,2.1,11.5,4.1,17.5,6c0.8,0.3,1.7,0.4,2.6,0.4c0.9,0,1.8-0.1,2.6-0.4c16.1-5.2,31.9-11.3,47.4-18.1
		c0.2-0.1,0.4,0,0.6-0.1c0.2-0.1,0.3-0.3,0.6-0.4c150-67.1,204.7-188.6,204.7-278.6C512.5,101.6,454.4,29.9,380.3,29.9z"/>
</g>
<g id="Camada_1">
	<g id="Page-1">
		<g id="_x30_29---Pet-Health">
			<path id="Shape" class="st1" d="M379.7,29.9c-18,0-35.9,2.9-53.1,8.5c-9.1-10.4-22.2-16.6-36-17c-25.7,1.4-51.1,6-75.7,13.7
				c-5.7,1.7-11,4.5-15.6,8.4c-21.2-9-44.1-13.6-67.1-13.6C58.1,29.9,0,101.5,0,193c0,96.1,62.1,227.8,235.4,291
				c0.2,0.1,0.3,0.1,0.5,0.2c5.7,2.1,11.5,4.1,17.5,6c0.8,0.3,1.7,0.4,2.6,0.4c0.9,0,1.8-0.1,2.6-0.4c16.1-5.2,31.9-11.3,47.4-18.1
				c0.2-0.1,0.4,0,0.6-0.1c0.2-0.1,0.3-0.3,0.6-0.4C457.3,404.5,512,283,512,193C512,101.5,453.9,29.9,379.7,29.9L379.7,29.9z
				 M494.9,193c-1,51.8-17.5,102.1-47.3,144.5c-22.1-49.1-50.3-93.6-65.6-108.8c-11.1-12.4-25.3-21.6-41.1-26.8l-3.5-24.7
				c14.6-10.1,22.8-27.2,21.5-44.9c0.3-27.9-7.1-55.4-21.2-79.5c13.7-3.9,27.8-5.8,42-5.8C444.3,46.9,494.9,111.1,494.9,193
				L494.9,193z M17.1,193c0-81.9,50.6-146.1,115.2-146.1c19.1,0,38,3.6,55.8,10.5l-16.6,24.9c-3.5,5.3-8.9,9.1-15.1,10.7l-49.6,12.3
				c-7.3,1.9-12.5,8.3-12.8,15.9c-0.5,14.5,1.4,62.9,48.9,78.8c0.9,0.3,1.8,0.4,2.7,0.4c25.2,0.3,50.1,4.5,74,12.6l-2.1,4.5
				c-13.7,26.4-21,55.6-21.2,85.3c0.6,32.7,12.7,64.1,34.1,88.7v72.2C73.7,402.2,17.1,281.5,17.1,193L17.1,193z M110.9,121.9
				l17.1-4.3v14.6h-16.8C110.9,128.8,110.8,125.4,110.9,121.9z M308.5,452.2c-0.9-4.2-1.3-8.4-1.3-12.7
				c-0.4-21.2,9.1-41.4,25.8-54.4c14.1-9.8,32.3-12,48.3-5.7c2.9,1,6.1,0.3,8.4-1.7c2.3-2,3.3-5.1,2.7-8.1s-2.8-5.4-5.7-6.4
				c-21.3-8-45.1-4.9-63.7,8.1c-21.1,16.3-33.3,41.6-32.9,68.3c0,6.7,0.8,13.3,2.6,19.8c-11.7,5-23.9,9.6-36.7,13.9
				c-2.9-1-5.7-2-8.5-3v-81.9c0-2.3-0.9-4.4-2.5-6c-19.7-21.8-30.9-49.9-31.6-79.3c0.2-27.2,6.9-54,19.6-78.1l2.1-4.5
				c2-4.2,2.1-9,0.4-13.3c-1.7-4.4-5.2-7.8-9.6-9.6c-25.3-8.9-52-13.6-78.8-14c-15.8-5.4-27.9-18.1-32.5-34.1H128
				c9.4,0,17.1-7.6,17.1-17.1v-18.8l15.4-3.8c10.3-2.6,19.2-8.9,25.1-17.8L205.6,62c0.7-1,1.4-1.9,2.2-2.8c3.2-3.7,7.3-6.3,11.9-7.7
				c23-7.2,46.8-11.6,70.9-13.1c10.7,0.9,20.5,6.4,26.8,15.2c16.4,22.9,25,50.5,24.4,78.7c0,16.3-5.8,27.3-17.3,32.5
				c-12.1,4.6-25.6,4.4-37.5-0.8c-3.3-1.3-5.4-4.4-5.4-7.9V98.1c0-4.7-3.8-8.5-8.5-8.5s-8.5,3.8-8.5,8.5v57.9
				c0,10.5,6.4,19.9,16.2,23.8c12.8,5.2,26.8,6.6,40.4,3.9l2.9,20.5c1,6.7,5.9,12.2,12.4,14c12.9,4.5,24.4,12.2,33.5,22.5
				c13.3,13.2,43.1,59.2,66,112.6C401.8,395.8,358.1,429.6,308.5,452.2L308.5,452.2z"/>
		</g>
	</g>
</g>
</svg>
