<svg height="512" viewBox="0 0 60 49" width="512" xmlns="http://www.w3.org/2000/svg"><g id="Page-1" fill="none" fill-rule="evenodd"><g id="016---Speech-Bubbles" fill="rgb(0,0,0)" fill-rule="nonzero"><path id="Shape" d="m.461 37.254c-.17381066.53326-.08133495 1.1175278.24865948 1.5710474.32999444.4535197.85747096.7212678 1.41834052.7199526.12402551-.000058.24770263-.0131296.369-.039l10.39-2.306c3.0499878 1.250077 6.3168089 1.885566 9.613 1.87h.24c.5522847 0 1-.4477153 1-1s-.4477153-1-1-1h-.24c-3.135476.0146944-6.2409237-.6110911-9.126-1.839-.1923618-.0823529-.405711-.1022889-.61-.057l-10.264 2.282 2.636-7.889c.10145341-.3045983.05049137-.6393855-.137-.9-1.93837195-2.6531089-2.98808465-5.8512499-2.999-9.137 0-9.666 9.2-17.53 20.5-17.53 9.447 0 17.622 5.468 19.879 13.3.1529829.5307456.7072544.8369829 1.238.684s.8369829-.7072544.684-1.238c-2.501-8.683-11.467-14.746-21.801-14.746-12.406 0-22.5 8.761-22.5 19.53.00901501 3.5288542 1.0832154 6.9727783 3.082 9.881z"/><path id="Shape" d="m18.864 5.291c-.0586298-.25941134-.2181803-.48478187-.4433711-.62627675-.2251908-.14149489-.4974696-.18745708-.7566289-.12772325-4.7663298.97500496-8.94668743 3.81134199-11.614 7.88-.2110153.3041508-.23674558.6999905-.06688026 1.0288992.16986531.3289087.50753314.537071.87769413.5410726.370161.0040016.71225004-.1968122.88918613-.5219718 2.3870377-3.61207602 6.1156138-6.12346637 10.36-6.978.5383855-.12218519.8758977-.65754934.754-1.196z"/><path id="Shape" d="m42.5 18c-9.649 0-17.5 6.871-17.5 15.316s7.851 15.317 17.5 15.317c2.5367671.0121769 5.0511583-.4747316 7.4-1.433l7.9 1.766c.1118268.0258497.2262245.0389333.341.039.5048798-.0008835.9786514-.2440584 1.2736972-.6537562.2950458-.4096979.375503-.93612.2163028-1.4152438l-1.972-5.956c1.5184923-2.2681721 2.3329224-4.9344655 2.341-7.664 0-8.445-7.851-15.316-17.5-15.316zm13.1 23.138 1.9 5.706-7.472-1.671c-.0712246-.0159919-.1440022-.024041-.217-.024-.1375312-.0002409-.2736569.0276649-.4.082-2.1826756.9353601-4.534378 1.4118956-6.909 1.4-8.547 0-15.5-5.974-15.5-13.317s6.951-13.314 15.498-13.314 15.5 5.974 15.5 13.316c-.0113357 2.4888399-.8020225 4.9116079-2.261 6.928-.1861985.2588028-.2378302.5908806-.139.894z"/><path id="Shape" d="m35 27h15c.5522847 0 1-.4477153 1-1s-.4477153-1-1-1h-15c-.5522847 0-1 .4477153-1 1s.4477153 1 1 1z"/><path id="Shape" d="m53 30h-21c-.5522847 0-1 .4477153-1 1s.4477153 1 1 1h21c.5522847 0 1-.4477153 1-1s-.4477153-1-1-1z"/><path id="Shape" d="m53 35h-21c-.5522847 0-1 .4477153-1 1s.4477153 1 1 1h21c.5522847 0 1-.4477153 1-1s-.4477153-1-1-1z"/><path id="Shape" d="m50 40h-15c-.5522847 0-1 .4477153-1 1s.4477153 1 1 1h15c.5522847 0 1-.4477153 1-1s-.4477153-1-1-1z"/><path id="Shape" d="m7 19.5c0 1.8200801 1.0963898 3.4609434 2.77792455 4.1574579s3.61706495.3115136 4.90405595-.9754774 1.6719919-3.2225212.9754774-4.9040559c-.6965145-1.6815348-2.3373778-2.7779246-4.1574579-2.7779246-2.48413909.0027556-4.49724444 2.0158609-4.5 4.5zm7 0c0 1.3807119-1.1192881 2.5-2.5 2.5s-2.5-1.1192881-2.5-2.5 1.1192881-2.5 2.5-2.5 2.5 1.1192881 2.5 2.5z"/><path id="Shape" d="m22.5 24c2.4852814 0 4.5-2.0147186 4.5-4.5s-2.0147186-4.5-4.5-4.5-4.5 2.0147186-4.5 4.5c.0027556 2.4841391 2.0158609 4.4972444 4.5 4.5zm0-7c1.3807119 0 2.5 1.1192881 2.5 2.5s-1.1192881 2.5-2.5 2.5-2.5-1.1192881-2.5-2.5 1.1192881-2.5 2.5-2.5z"/><path id="Shape" d="m30.081 19.76c.4710941-.0003304.8780703-.3294105.977-.79.2527182-1.1472027 1.2672993-1.9656812 2.442-1.97.3410554-.0000817.6780938.0736028.988.216.1321294.0617304.2761618.0938134.422.094h.01c.4744491-.0043136.8805526-.3414345.9721125-.8069852.0915599-.4655506-.1566327-.931352-.5941125-1.1150148-.5649896-.2555181-1.1779172-.387785-1.798-.388-2.116615.0071543-3.9449443 1.481868-4.4 3.549-.116202.5398485.2271728 1.0716989.767 1.188.070319.0152146.1420539.0229245.214.023z"/><circle id="Oval" cx="22" cy="5" r="1"/></g></g></svg>